<?xml version="1.0" standalone="no"?>
<!DOCTYPE svg PUBLIC "-//W3C//DTD SVG 20010904//EN"
 "http://www.w3.org/TR/2001/REC-SVG-20010904/DTD/svg10.dtd">
<svg version="1.0" xmlns="http://www.w3.org/2000/svg"
 width="300.000000pt" height="169.000000pt" viewBox="0 0 300.000000 169.000000"
 preserveAspectRatio="xMidYMid meet">
<metadata>
Created by potrace 1.10, written by Peter Selinger 2001-2011
</metadata>
<g transform="translate(0.000000,169.000000) scale(0.100000,-0.100000)"
fill="#000000" stroke="none">
<path d="M1872 1210 c-69 -122 -87 -162 -76 -167 8 -3 21 -3 29 1 8 3 15 3 15
0 0 -3 -42 -51 -92 -105 -51 -55 -94 -105 -96 -110 -2 -5 16 -9 39 -9 l43 0
-30 -22 c-86 -63 -214 -173 -214 -185 0 -10 42 -13 205 -13 l205 0 0 -82 0
-83 51 0 50 0 -3 83 -3 82 233 0 c179 0 232 3 232 13 -1 6 -55 55 -122 107
-115 91 -119 95 -89 98 17 2 31 7 31 11 0 8 -27 39 -164 190 -28 30 -29 33 -9
27 35 -11 47 2 28 30 -8 13 -47 81 -86 151 -39 71 -75 132 -78 136 -4 4 -49
-65 -99 -153z m148 14 c0 -3 14 -25 30 -50 17 -24 27 -44 23 -44 -4 0 -3 -4 2
-8 6 -4 16 -18 23 -30 11 -21 11 -26 -4 -36 -24 -18 -12 -42 64 -122 37 -39
68 -75 69 -80 1 -5 -6 -17 -15 -27 -18 -21 -19 -20 81 -102 20 -16 53 -44 73
-62 l37 -32 -204 -2 c-233 -2 -242 -2 -481 0 -98 2 -178 4 -178 5 0 2 26 23
58 48 31 25 79 65 105 88 l48 43 -22 23 -22 24 59 62 c32 34 67 70 77 80 9 10
17 23 17 29 0 7 -8 18 -17 25 -17 12 -16 17 14 76 18 35 49 91 70 126 l37 62
28 -45 c15 -25 28 -48 28 -51z m-46 -631 c-1 -7 -2 -40 -2 -73 -2 -53 -4 -60
-22 -60 -11 0 -20 3 -21 8 -7 81 -8 119 -4 130 6 17 50 12 49 -5z"/>
<path d="M967 1339 c-8 -13 -41 -71 -72 -129 -32 -58 -66 -117 -77 -132 -24
-34 -23 -36 11 -40 29 -3 29 -4 -65 -107 -51 -58 -91 -107 -88 -110 3 -3 22
-4 42 -2 23 2 33 -1 27 -7 -5 -5 -62 -51 -125 -102 -63 -51 -116 -97 -118
-101 -2 -5 91 -9 207 -9 l211 0 0 -85 0 -85 51 0 51 0 -3 85 -4 85 233 0 c136
0 232 4 232 9 0 5 -54 52 -119 103 -66 51 -120 97 -120 101 -1 5 11 7 27 5 16
-2 27 2 27 9 0 6 -42 56 -93 112 l-92 100 30 3 30 3 -41 70 c-22 39 -59 104
-81 145 -55 101 -62 109 -81 79z m102 -168 c63 -107 61 -102 45 -118 -8 -8
-14 -20 -14 -26 0 -7 32 -46 70 -87 66 -72 82 -102 60 -115 -24 -15 -1 -40
113 -130 42 -33 74 -61 72 -64 -3 -2 -97 -4 -210 -4 -113 1 -208 -3 -210 -8
-3 -4 -12 -6 -20 -2 -8 3 -15 0 -15 -6 0 -6 10 -11 21 -11 17 0 20 -4 15 -22
-3 -13 -6 -46 -6 -75 0 -43 -3 -51 -17 -49 -15 2 -19 17 -24 72 -3 38 -4 75
-1 83 3 9 1 12 -6 7 -6 -3 -13 -2 -16 3 -4 5 -82 9 -181 8 -134 -2 -175 1
-175 11 0 6 3 12 8 12 4 0 19 10 34 23 47 40 62 52 100 80 46 35 53 53 32 85
-9 13 -12 27 -8 31 30 22 144 152 144 163 0 8 -9 19 -20 24 -20 9 -18 13 32
100 29 49 62 107 72 127 l20 38 29 -53 c16 -29 42 -73 56 -97z"/>
</g>
</svg>
